Coordinates
version=1
nRows=26
nColumns=24
inDegrees=yes

Units are S.I. units (second, meters, Newtons, ...)
Angles are in degrees.

endheader
time	pelvis_tilt	pelvis_list	pelvis_rotation	pelvis_tx	pelvis_ty	pelvis_tz	hip_flexion_r	hip_adduction_r	hip_rotation_r	knee_angle_r	ankle_angle_r	subtalar_angle_r	mtp_angle_r	hip_flexion_l	hip_adduction_l	hip_rotation_l	knee_angle_l	ankle_angle_l	subtalar_angle_l	mtp_angle_l	lumbar_extension	lumbar_bending	lumbar_rotation
      6.42000000	     29.07672034	      1.68177811	      4.06860098	      1.50172397	      0.68121589	     -0.29808839	    -10.49739923	     -4.14006468	    -15.59951672	    -61.32074419	     14.12028776	      0.88013228	      0.00000000	    -23.70240357	      1.59773415	     -7.16628227	    -12.77438207	     14.02648639	     17.15501687	      0.00000000	    -59.66179021	      2.20406882	     -0.45768868
      6.42500000	     28.95121399	      1.64062037	      4.15607513	      1.50636005	      0.68134096	     -0.29789990	     -9.75893724	     -3.94278837	    -15.37771171	    -60.45913864	     14.46569668	      1.38882199	      0.00000000	    -24.12891695	      1.48711610	     -7.22836718	    -12.52580018	     14.26254029	     17.28204590	      0.00000000	    -59.61694521	      2.26448234	     -0.61149347
      6.43000000	     28.83778113	      1.61999660	      4.24307308	      1.51100881	      0.68139801	     -0.29773343	     -9.07336613	     -3.76845917	    -15.14125594	    -59.50444010	     14.77904137	      1.82319878	      0.00000000	    -24.55493903	      1.39859444	     -7.28354983	    -12.30854063	     14.52219358	     17.40908901	      0.00000000	    -59.57786592	      2.31898478	     -0.77842558
      6.43500000	     28.73722031	      1.61883515	      4.33313533	      1.51566275	      0.68138702	     -0.29756882	     -8.43967996	     -3.61195242	    -14.88715931	    -58.46233632	     15.05534101	      2.18924270	      0.00000000	    -24.98342029	      1.32611932	     -7.32562164	    -12.11432948	     14.80533800	     17.54585836	      0.00000000	    -59.55363941	      2.36947698	     -0.95368149
      6.44000000	     28.64148489	      1.64030637	      4.41878937	      1.52032826	      0.68131617	     -0.29737658	     -7.85622796	     -3.47288810	    -14.61504412	    -57.31652427	     15.28511402	      2.39767893	      0.00000000	    -25.39314959	      1.27758563	     -7.35772831	    -11.97349975	     15.09154780	     17.57477343	      0.00000000	    -59.52499485	      2.39457516	     -1.17702574
      6.44500000	     28.55413685	      1.67564441	      4.50745928	      1.52501192	      0.68118526	     -0.29721742	     -7.32812617	     -3.35364575	    -14.32326289	    -56.07496369	     15.47701008	      2.60988929	      0.00000000	    -25.79474659	      1.24086528	     -7.37789172	    -11.87394756	     15.41039305	     17.64600954	      0.00000000	    -59.49478764	      2.42510770	     -1.39053413
      6.45000000	     28.51488641	      1.71585779	      4.63997767	      1.52971666	      0.68104079	     -0.29707369	     -6.91819234	     -3.22734883	    -14.05451517	    -54.71040734	     15.60383083	      2.81694918	      0.00000000	    -26.24044295	      1.17437712	     -7.38851766	    -11.79168744	     15.76964114	     17.84735874	      0.00000000	    -59.51339362	      2.48507275	     -1.59022731
      6.45500000	     28.43251979	      1.81260605	      4.70623985	      1.53441826	      0.68077762	     -0.29689954	     -6.47740191	     -3.17868082	    -13.70322556	    -53.29765891	     15.72052107	      2.84442096	      0.00000000	    -26.62176145	      1.21181119	     -7.37137298	    -11.75380875	     16.09759904	     17.80749200	      0.00000000	    -59.47889487	      2.46276038	     -1.83696852
      6.46000000	     28.36154845	      1.90479381	      4.79328205	      1.53913820	      0.68047507	     -0.29674483	     -6.10557564	     -3.12714816	    -13.35558112	    -51.77453901	     15.77521350	      2.86621802	      0.00000000	    -26.99694502	      1.22904826	     -7.37082184	    -11.75753419	     16.46078300	     17.80292789	      0.00000000	    -59.45216894	      2.46263941	     -2.08681926
      6.46500000	     28.42458757	      1.97539071	      5.01343025	      1.54389726	      0.68027198	     -0.29663582	     -5.99936475	     -3.00838355	    -13.13773364	    -50.04808408	     15.66685251	      2.76178989	      0.00000000	    -27.51259118	      1.13067583	     -7.29990009	    -11.76665814	     16.86934350	     17.97700492	      0.00000000	    -59.55832679	      2.57419286	     -2.35308747
      6.47000000	     28.45801721	      2.12178134	      5.14907131	      1.54865321	      0.67995299	     -0.29653313	     -5.87893249	     -3.01002779	    -12.83278852	    -48.29013637	     15.61868447	      2.67880944	      0.00000000	    -27.99278862	      1.16781245	     -7.20955966	    -11.79758931	     17.22829475	     17.91823168	      0.00000000	    -59.62697434	      2.58856145	     -2.66265443
      6.47500000	     28.34088928	      2.30503163	      5.17319769	      1.55344409	      0.67943514	     -0.29639550	     -5.58897934	     -3.10765387	    -12.41180172	    -46.52613225	     15.62318493	      2.65016221	      0.00000000	    -28.30215356	      1.31571656	     -7.18501556	    -11.86275756	     17.59962652	     17.84547003	      0.00000000	    -59.53400564	      2.48947813	     -2.88407796
      6.48000000	     28.36441327	      2.46323285	      5.35205280	      1.55822363	      0.67904347	     -0.29627676	     -5.57202678	     -3.11184691	    -12.11947416	    -44.54925621	     15.36960305	      2.34405570	      0.00000000	    -28.73926478	      1.32772597	     -7.10992381	    -11.96385412	     17.99419080	     17.85299178	      0.00000000	    -59.58706643	      2.52188387	     -3.18207910
      6.48500000	     28.24284060	      2.67787438	      5.35570540	      1.56306889	      0.67843337	     -0.29616032	     -5.38339129	     -3.27111865	    -11.68939093	    -42.59510139	     15.30978059	      2.31087774	      0.00000000	    -29.04122385	      1.51915116	     -7.10718137	    -12.05427695	     18.36620162	     17.76058924	      0.00000000	    -59.47366464	      2.40231626	     -3.42758013
      6.49000000	     28.31027000	      2.89232624	      5.54717829	      1.56787923	      0.67800443	     -0.29604186	     -5.54024554	     -3.34736752	    -11.43465492	    -40.41059932	     14.95759439	      1.92879576	      0.00000000	    -29.52460552	      1.56684827	     -6.99768961	    -12.17458769	     18.73538000	     17.74763498	      0.00000000	    -59.57014783	      2.41027578	     -3.74783026
      6.49500000	     28.34061200	      3.13155691	      5.67185403	      1.57277305	      0.67748884	     -0.29597243	     -5.70491303	     -3.50476323	    -11.17511953	    -38.15793854	     14.72458138	      1.76629383	      0.00000000	    -29.99347597	      1.68706159	     -6.92898325	    -12.27079950	     19.08330613	     17.69868401	      0.00000000	    -59.60456494	      2.37619465	     -4.07442688
      6.50000000	     28.16383258	      3.41026671	      5.63125869	      1.57771572	      0.67673745	     -0.29583174	     -5.61107512	     -3.78197601	    -10.76612053	    -35.94282884	     14.57935754	      1.74453106	      0.00000000	    -30.24636558	      1.96333740	     -6.96904437	    -12.37391121	     19.42342165	     17.60412551	      0.00000000	    -59.41851990	      2.17398090	     -4.27259667
      6.50500000	     28.20915988	      3.68495160	      5.77639104	      1.58258663	      0.67620006	     -0.29566425	     -5.90433126	     -3.96163925	    -10.55009108	    -33.48822136	     14.14936492	      1.35373025	      0.00000000	    -30.71376317	      2.08107767	     -6.88717387	    -12.51034451	     19.74577300	     17.59649285	      0.00000000	    -59.48573324	      2.11431310	     -4.61295856
      6.51000000	     28.24450969	      3.98291680	      5.90172256	      1.58758628	      0.67563135	     -0.29556509	     -6.26417325	     -4.21053191	    -10.41621800	    -30.94083181	     13.84462085	      1.30028479	      0.00000000	    -31.21557707	      2.23709074	     -6.83835668	    -12.58508447	     20.02386250	     17.58572502	      0.00000000	    -59.51277611	      2.03917304	     -4.94870351
      6.51500000	     28.19842145	      4.29917615	      5.95530735	      1.59260244	      0.67496361	     -0.29539425	     -6.55101433	     -4.50821049	    -10.27473695	    -28.35479340	     13.54515788	      1.24258964	      0.00000000	    -31.62836637	      2.45392950	     -6.80957475	    -12.67586165	     20.29083597	     17.56576451	      0.00000000	    -59.45727517	      1.88905846	     -5.22604141
      6.52000000	     28.16604975	      4.63823691	      6.03020320	      1.59768207	      0.67430143	     -0.29516639	     -6.92582653	     -4.82191073	    -10.22097204	    -25.67506222	     13.23771453	      1.27921014	      0.00000000	    -32.07331946	      2.66247421	     -6.78361157	    -12.74640701	     20.52991403	     17.58674910	      0.00000000	    -59.40939889	      1.72301336	     -5.51852029
      6.52500000	     28.10748551	      4.98528516	      6.07079873	      1.60278932	      0.67360651	     -0.29488069	     -7.30650101	     -5.15565964	    -10.20739825	    -22.94185599	     12.89259577	      1.41205403	      0.00000000	    -32.49922910	      2.89099600	     -6.76776891	    -12.80912006	     20.73601243	     17.62800437	      0.00000000	    -59.33360210	      1.52550729	     -5.81627047
      6.53000000	     28.03429199	      5.34509215	      6.10510593	      1.60795483	      0.67289344	     -0.29451380	     -7.71619772	     -5.49733697	    -10.24001028	    -20.15998724	     12.52993809	      1.67810680	      0.00000000	    -32.92603463	      3.12056782	     -6.74964682	    -12.85081979	     20.91233862	     17.71318995	      0.00000000	    -59.23934162	      1.29787263	     -6.11537866
      6.53500000	     27.96820127	      5.72551417	      6.14539499	      1.61319716	      0.67217422	     -0.29406394	     -8.18715944	     -5.84601349	    -10.37808931	    -17.33113225	     12.17547008	      2.02383318	      0.00000000	    -33.37844279	      3.34679147	     -6.72356955	    -12.87594715	     21.05297731	     17.81683724	      0.00000000	    -59.14490439	      1.04332351	     -6.41202790
      6.54000000	     27.87218923	      6.10998773	      6.14458254	      1.61848515	      0.67140587	     -0.29348091	     -8.63293819	     -6.19317321	    -10.50939497	    -14.52297033	     11.80253147	      2.48255255	      0.00000000	    -33.80699078	      3.58416735	     -6.69786914	    -12.89517412	     21.17425600	     17.98024249	      0.00000000	    -59.01496512	      0.74119066	     -6.71358816
      6.54500000	     27.58704773	      6.49601516	      5.98691653	      1.62377513	      0.67047187	     -0.29261562	     -8.77870003	     -6.56514997	    -10.38247444	    -11.86964469	     11.37424169	      2.77095815	      0.00000000	    -34.01874276	      3.92566395	     -6.77884968	    -12.93297066	     21.18582992	     18.01629710	      0.00000000	    -58.72049018	      0.24543980	     -6.86781111
